<?xml version="1.0" encoding="UTF-8" standalone="no"?>
<svg
   xmlns:wallcanvas="http://www.drone.paint/"
   xmlns:dc="http://purl.org/dc/elements/1.1/"
   xmlns:cc="http://creativecommons.org/ns#"
   xmlns:rdf="http://www.w3.org/1999/02/22-rdf-syntax-ns#"
   xmlns:svg="http://www.w3.org/2000/svg"
   xmlns="http://www.w3.org/2000/svg"
   xmlns:sodipodi="http://sodipodi.sourceforge.net/DTD/sodipodi-0.dtd"
   xmlns:inkscape="http://www.inkscape.org/namespaces/inkscape"
   viewBox="-50 -50 3022.5167464114834 1491.357630979499"
   width="2922.5167464114834mm"
   height="1391.357630979499mm"
   version="1.1"
   wallcanvas:origin="0 10000"
   wallcanvas:wallid="CT19-001"
   style="width: 100%; height: 100%;"
   id="svg18"
   sodipodi:docname="ae.svg"
   inkscape:version="0.92.3 (2405546, 2018-03-11)">
  <sodipodi:namedview
     pagecolor="#ffffff"
     bordercolor="#666666"
     borderopacity="1"
     objecttolerance="10"
     gridtolerance="10"
     guidetolerance="10"
     inkscape:pageopacity="0"
     inkscape:pageshadow="2"
     inkscape:window-width="2560"
     inkscape:window-height="1320"
     id="namedview20"
     showgrid="false"
     inkscape:zoom="0.086806081"
     inkscape:cx="8628.2523"
     inkscape:cy="3801.4308"
     inkscape:window-x="0"
     inkscape:window-y="27"
     inkscape:window-maximized="1"
     inkscape:current-layer="svg18" />
  <defs
     id="defs22" />
  <metadata
     id="metadata4">
    <graffiti>
      <canvas
         z="1"
         y="1"
         scale="1" />
    </graffiti>
    <rdf:RDF>
      <cc:Work
         rdf:about="">
        <dc:format>image/svg+xml</dc:format>
        <dc:type
           rdf:resource="http://purl.org/dc/dcmitype/StillImage" />
      </cc:Work>
    </rdf:RDF>
  </metadata>
  <g
     fill="none"
     stroke="#000000"
     stroke-width="100"
     stroke-linecap="round"
     stroke-linejoin="round"
     id="g16">
    <path
       d="M0.0 612.463646173L-2.01826431028 578.929118755L-2.27054734906 562.255027431L0.0 545.891510719L14.0105370327 502.331637986L29.9574609541 459.34773463L43.6529026881 415.542361451L59.9149219082 372.80395854L80.3489794934 340.482204349L103.186809953 309.560429859L134.548487317 262.887898339L150.101258991 242.134482516L219.688046997 179.744765725L283.812179694 119.79021186L339.517890813 86.5437760896L362.414030052 72.392410235L386.118385631 59.9149219082L429.081252754 45.7255211544L472.66216172 33.2860677268L515.576936087 18.4390297777L559.20593781 6.65721354536L608.983738443 3.42722225624L659.06414099 3.32860677268L749.375805596 1.00540129084L794.460203663 4.08210508234L838.808906715 13.3144270907L932.00989635 46.6004948175L979.239271479 61.7856140448L1025.21088598 79.8865625443L1064.30590348 105.152916632L1101.76884176 133.144270907L1176.697953 185.039462286L1238.24171944 246.316901178L1269.28182517 275.32956373L1298.15664134 306.231823086L1400.83492554 448.513392068L1501.20165448 592.492005537L1617.84437302 760.149241591L1666.91073458 832.615059011L1703.02329831 877.388187636L1780.80462338 961.967357304L1818.51081917 1004.13262116L1857.36257915 1045.18252662L1888.37134168 1070.18138296L1927.50033084 1095.85309715L2000.49267038 1138.38351626L2034.98446237 1159.26087954L2070.39341261 1178.32679753L2095.01934844 1185.94305113L2120.3225142 1191.64122462L2170.25161579 1204.95565171L2213.52350383 1208.28425848L2235.18536079 1211.03752185L2256.79539188 1211.61286525L2301.91675786 1202.69609721L2346.66777474 1191.64122462L2436.5401576 1171.66958398"
       id="path2" />
    <path
       d="M2436.5401576 1165.01237044L2467.05645113 1156.31038558L2496.45507951 1145.0407298L2539.72696755 1115.08326885L2582.9988556 1085.12580789L2619.6135301 1045.18252662L2656.2282046 1005.23924535L2686.18566555 958.638750531L2698.45505609 932.023338933L2705.60575383 919.958819705L2716.14312651 912.038255714L2737.7518766 907.45754974L2760.31545516 907.96651707L2806.01550937 912.038255714L2829.64211865 909.136714057L2854.04107032 904.300811297L2876.89533723 903.333630745L2887.01914291 906.114274832L2895.88789223 912.038255714L2899.88173838 918.333740526L2900.21097629 925.48348785L2893.25834267 941.557220024L2881.79542198 958.682352213L2872.58764482 975.281784395L2861.87809862 1007.31683455L2849.28739741 1038.52531308L2831.86210263 1065.6812712L2812.67272291 1091.78302144L2771.21249078 1150.57859988L2706.15730619 1208.28425848L2672.04103686 1240.93947806L2636.25656396 1271.52778716L2606.98658521 1287.64523822L2576.34164205 1301.48524812L2516.42672014 1331.44270907"
       id="path14" />
    <path
       d="M2516.42672014 1338.09992262L2399.9254831 1364.7287768L2341.98719554 1379.99873507L2283.42424606 1391.35763098L2233.5203956 1390.01105506L2183.56604288 1384.70041743L2133.45550709 1382.81759252L2083.7078397 1378.04320389L2043.40037317 1366.14071587L2003.82127715 1351.41434971L1963.17536964 1339.73302302L1923.93471461 1324.78549553L1866.43211978 1288.02542396L1810.76208434 1248.22753975L1753.3659565 1211.04823026L1697.58945407 1171.66958398L1670.03293136 1144.38181015L1644.3317457 1115.08326885L1574.15192672 1040.03625334L1540.97780465 997.694005062L1488.74775919 920.013247345L1361.40017003 738.950703535L1232.96292503 554.871785891L1180.27623778 475.152624334L1143.25786426 430.802905969L1061.82556048 352.832317904L999.972606656 292.58612494L945.324323441 256.302721496L922.534712179 240.374469282L898.723828623 226.345260542L865.810546315 215.349101989L832.15169317 206.373619906L799.155815964 195.039572169L765.579557716 186.40197927L724.063219524 185.027225977L682.364388399 186.40197927L640.665557274 185.027225977L599.149219082 186.40197927L565.572960834 195.039572169L532.577083629 206.373619906L498.9549563 215.433556448L466.004948175 226.345260542L440.591671494 240.446392793L416.075846585 256.302721496L366.014937207 286.358918559L322.87485695 326.203463722L300.275003775 345.300513071L279.602968905 366.146744995L258.547297168 400.381085792L239.659687633 436.047487221L218.78232435 470.53927921L199.716406361 505.948229447L192.100152761 530.574165286L186.40197927 555.877331037L175.448157242 595.936206825L171.857261018 615.194838211L173.087552179 695.67881549L171.664963503 740.705443482L173.087552179 785.551198352L181.67708496 819.133728225L193.059192815 852.123333806L212.34637466 917.183243999L246.316901178 971.953177622L277.170445055 1022.15307925L312.889036632 1058.49695371L328.947779836 1075.82104335L346.175104359 1091.78302144L378.96539065 1112.50062461L412.747239812 1131.72630271L445.317604073 1153.15454987L479.319375266 1171.66958398L522.112217155 1183.20461586L565.863151355 1191.64122462L608.925026464 1202.84117619L652.406927445 1211.61286525L680.664891303 1211.18302093L708.99324258 1208.28425848L737.381989534 1207.43523807L765.579557716 1204.95565171L822.540681565 1189.91077852L878.752187987 1171.66958398"
       id="path6" />
    <path
       d="M878.752187987 1165.01237044L919.374679845 1149.7236061L958.638750531 1131.72630271L984.020353929 1114.05020552L1008.56785212 1095.11162821L1061.03248483 1056.3216735L1111.75466207 1005.23924535L1139.03396918 979.202716308L1165.01237044 951.981536986L1251.55614653 825.494479624L1255.2090725 824.491828996L1259.4262568 826.452460606L1268.19918039 832.15169317L1277.18222053 834.57829427L1284.84221425 838.808906715L1307.35403018 871.45495051L1328.1141023 905.381042168L1350.72045657 938.111475317L1371.38599034 971.953177622L1372.502439 981.675440165L1371.38599034 991.924818258L1372.91425322 1002.43308744L1371.38599034 1011.89645889L1332.60142389 1054.50382532L1291.4994278 1095.11162821L1216.26800835 1174.26610685L1138.38351626 1231.58450589L1102.38319094 1259.15270954L1065.15416726 1284.84221425L1034.03523097 1299.16127147L1001.91063858 1311.47106844L938.667109895 1338.09992262"
       id="path12" />
    <path
       d="M938.66711 1344.7571L868.76637 1364.7288L834.07052 1375.8997L798.86563 1384.7004L754.0394 1387.5709L708.99324 1388.029L664.04286 1390.8106L619.12086 1391.3576L584.03072 1385.8099L549.22012 1378.0432L514.01084 1372.4101L479.31938 1364.7288L445.65635 1350.7367L412.74724 1334.7713L347.40178 1305.4817L289.58879 1268.1992L260.80108 1250.578L233.00247 1231.5845L210.80229 1210.579L189.73059 1188.3126L147.0913 1145.7875L113.17263 1098.4402L95.570189 1075.7176L79.886563 1051.8397L58.895572 1002.3684L39.943281 951.98154L18.755083 902.4727L0.0 852.12333L-1.2856271 834.00027L0.0 815.50866L0.0 778.89398"
       id="path10" />
    <path
       id="path4"
       d="M2922.51674641 619.120859718L2924.20273238 585.662207221L2922.51674641 552.548724265L2913.34772956 520.714084856L2902.54510578 489.305195584L2893.32852083 457.397934552L2882.57346514 426.061666903L2868.33060763 399.069470407L2852.61600419 372.80395854L2820.61593335 316.47377983L2776.05804841 259.631328269L2753.53089008 229.002591368L2729.4575536 199.716406361L2703.52084991 177.325549856L2676.19984523 156.444518316L2606.12366606 103.464085776L2568.93212371 80.0596674098L2529.74114724 59.9149219082L2488.61610851 43.2806230691L2446.35210016 29.6521694321L2359.98220183 9.98582031803L2331.79058104 4.07839546432L2303.39588669 0.0L2260.12769126 0.745237800378L2216.8521106 3.32860677268L2173.47490542 3.84672383641L2130.30833451 6.65721354536L2093.4586505 15.5157610131L2057.07898552 26.6288541814L2020.13409957 35.6227860422L1983.84963652 46.6004948175L1948.46398755 63.957481492L1913.94889429 83.215169317L1878.49672297 100.671204865L1844.04815206 119.829843816L1805.19252383 148.985336118L1767.49019629 179.744765725L1693.66000528 237.17397168L1634.34592539 299.574609541L1585.97631231 348.407216949L1564.44518316 382.789778858L1555.12939188 394.148660605L1551.4684629 399.937317213L1551.13075607 406.090026267L1559.40896517 425.523380083L1570.50913306 443.705604381L1594.40264411 479.319375266L1629.99051108 545.03465717L1642.32101339 554.489663316L1670.96059988 565.863151355" />
    <path
       id="path8"
       d="M1670.96059988 559.20593781L1727.54691502 485.976588811L1754.73347591 448.388131753L1784.13323016 412.747239812L1826.42010215 376.701505513L1870.67700625 342.846497586L1912.80373854 306.247794592L1934.29653809 288.566567551L1957.22078233 272.94575536L1979.52884691 261.762236398L2002.93933686 252.834106699L2050.42177197 236.33108086L2096.37470456 215.779229044L2119.59400669 206.344996098L2143.6227616 199.716406361L2168.34137837 197.099804917L2193.33325517 197.390538411L2243.48096479 199.716406361L2293.6286744 197.390538411L2318.6205512 197.099804917L2343.33916797 199.716406361L2367.36792288 206.344996098L2390.58722501 215.779229044L2436.5401576 236.33108086L2483.99600369 252.87919034L2529.74114724 272.94575536L2560.8510228 297.98974504L2589.65606914 326.203463722L2631.41667038 362.12885455L2649.381144 379.218233283L2661.61547929 400.589839884L2686.18566555 449.361914312L2722.16938436 517.452338655L2736.11476714 589.163398764L2743.31384858 609.149186345L2753.09324646 630.808708609L2757.71201145 649.120761507L2755.66710995 655.452360679L2749.42919423 659.06414099L2711.52593538 665.867694005L2673.20254047 669.061198481L2595.68316037 667.950414315L2517.64668974 662.396493487L2439.86876437 659.06414099L2130.30833451 659.06414099L2116.99390742 662.392747763L2098.85198646 667.481124315L2096.05036684 670.459640579L2096.05976789 675.480502454L2100.40601232 696.907643883L2103.67948033 742.279310307L2100.15196771 764.347837246L2094.27278001 788.369056181L2093.09694247 808.484891123L2096.4774754 815.247640848L2103.67948033 818.837266079L2154.18923672 826.039271014L2205.05321538 829.419803943L2307.51686511 828.243966403L2410.41648071 822.3647787L2513.09811337 818.837266079L2922.51674641 818.837266079" />
  </g>
</svg>
