<?xml version="1.0" encoding="UTF-8" standalone="no"?>
<svg
   xmlns:serif="http://www.serif.com/"
   xmlns:dc="http://purl.org/dc/elements/1.1/"
   xmlns:cc="http://creativecommons.org/ns#"
   xmlns:rdf="http://www.w3.org/1999/02/22-rdf-syntax-ns#"
   xmlns:svg="http://www.w3.org/2000/svg"
   xmlns="http://www.w3.org/2000/svg"
   xmlns:sodipodi="http://sodipodi.sourceforge.net/DTD/sodipodi-0.dtd"
   xmlns:inkscape="http://www.inkscape.org/namespaces/inkscape"
   width="100%"
   height="100%"
   viewBox="0 0 7938 7938"
   version="1.1"
   xml:space="preserve"
   style="fill-rule:evenodd;clip-rule:evenodd;stroke-linecap:round;stroke-linejoin:round;stroke-miterlimit:1.5;"
   id="svg45"
   sodipodi:docname="car.svg"
   inkscape:version="0.92.3 (2405546, 2018-03-11)"><sodipodi:namedview
   pagecolor="#ffffff"
   bordercolor="#666666"
   borderopacity="1"
   objecttolerance="10"
   gridtolerance="10"
   guidetolerance="10"
   inkscape:pageopacity="0"
   inkscape:pageshadow="2"
   inkscape:window-width="2560"
   inkscape:window-height="1320"
   id="namedview47"
   showgrid="false"
   inkscape:zoom="0.11313709"
   inkscape:cx="-1941.2263"
   inkscape:cy="3072.3721"
   inkscape:window-x="0"
   inkscape:window-y="27"
   inkscape:window-maximized="1"
   inkscape:current-layer="svg45" /><metadata
   id="metadata51"><rdf:RDF><cc:Work
       rdf:about=""><dc:format>image/svg+xml</dc:format><dc:type
         rdf:resource="http://purl.org/dc/dcmitype/StillImage" /><dc:title /></cc:Work></rdf:RDF></metadata><defs
   id="defs49" />
<g>
    <path
   style="fill:none;stroke:black;stroke-width:4px;"
   d="M7545.64 5481.86L6507.55 5735.22L6489.26390625 5722.08046875L6466.03802734 5709.12650391L6433.09625 5695.00125L6390.19306641 5682.01833984L6364.92922607 5676.67827393L6337.08296875 5672.49140625L6306.62360596 5669.74694092L6273.52044922 5668.73408203L6237.74281006 5669.74203369L6199.26 5673.06L6161.01037109 5679.0060083L6125.89515625 5687.44103516L6093.82236328 5697.9687085L6064.7 5710.19265625L6038.43607422 5723.71650635L6014.93859375 5738.14388672L5994.11556641 5753.07842529L5975.875 5768.12375L5946.77328125 5796.96126953L5926.8975 5821.48546875L5915.51171875 5838.52537109L5911.88 5844.91L4634.23 6046.95L4632.44138672 6037.63859375L4625.51796875 6013.22125L4611.12337891 5978.97328125L4600.39427979 5959.81134766L4586.92125 5940.17L4570.41224365 5920.70865234L4550.57521484 5902.08671875L4527.11811768 5884.96361328L4499.74890625 5869.99875L4468.17553467 5857.85154297L4432.10595703 5849.18140625L4391.24812744 5844.64775391L4345.31 5844.91L4298.9056958 5849.63389893L4256.73041016 5857.71634766L4218.6137085 5868.66347412L4184.38515625 5881.98140625L4153.87431885 5897.17627197L4126.91076172 5913.75419922L4103.32405029 5931.22131592L4082.94375 5949.08375L4065.59942627 5966.84762939L4051.12064453 5984.01908203L4030.07796875 6014.60921875L4018.45224609 6036.90318359L4014.88 6046.95L3990.45269531 6051.31556641L3926.0534375 6058.50078125L3730.635 6077.13625L3446.39 6102.11"
   serif:id="36"
   id="_36" />
    <path
   style="fill:none;stroke:black;stroke-width:4px;"
   d="M7157.68 5235.25L7129.37671875 5254.55703125L7103.06564453 5275.10927734L7076.70875 5299.74375L7065.40229248 5312.8456665L7056.35138672 5326.07275391L7050.31170166 5339.12655029L7048.03890625 5351.70859375L7050.28866943 5363.52042236L7057.81666016 5374.26357422L7071.37854736 5383.6395874L7091.73 5391.35L7117.91807617 5397.13423584L7147.97820312 5401.07357422L7181.14297852 5403.37108643L7216.645 5404.22984375L7291.59117187 5402.44337891L7366.6775 5397.33875L7435.76476563 5390.54052734L7492.71375 5383.67328125L7545.64 5376.23"
   serif:id="35"
   id="_35" />
    <path
   style="fill:none;stroke:black;stroke-width:4px;"
   d="M6456.48 5235.25L6328.57 4802.0L6463.93 4802.0L6478.40292969 4807.84230469L6517.8215625 4825.8990625L6576.18566406 4856.96503906L6610.59719238 4877.62484863L6647.495 4901.835L6686.12905762 4929.69483887L6725.74933594 4961.30371094L6765.60580566 4996.76096191L6804.9484375 5036.1659375L6843.02720215 5079.6179834L6879.09207031 5127.21644531L6912.3930127 5179.06066895L6942.18 5235.25"
   serif:id="34"
   id="_34" />
    <path
   style="fill:none;stroke:black;stroke-width:4px;"
   d="M6124.85 5123.47L6105.05615234 5130.81730469L6081.16296875 5137.9028125L6054.90048828 5143.93691406L6027.99875 5148.13L6002.18779297 5149.69246094L5979.19765625 5147.8346875L5969.30103271 5145.37645996L5960.75837891 5141.76707031L5953.78594971 5136.90781738L5948.6 5130.7L5945.8184082 5123.47117432L5945.75070313 5115.68361328L5948.15061523 5107.44069092L5952.771875 5098.84578125L5967.69335938 5081.01349609L5988.545 5063.01375L6013.35664063 5045.67353516L6040.158125 5029.81984375L6066.97929687 5016.27966797L6091.85 5005.88L6142.47890625 4984.533125L6169.17951172 4973.42867187L6195.26875 4964.48L6219.59501953 4959.51945312L6230.73716553 4959.10733398L6241.00671875 4960.379375L6250.259729 4963.56461914L6258.35224609 4968.89210938L6265.14031982 4976.59088867L6270.48 4986.89L6272.99873047 4998.63218018L6271.75140625 5010.43244141L6267.23525391 5022.17823975L6259.9475 5033.75703125L6250.38537109 5045.05627197L6239.04609375 5055.96341797L6213.025 5076.15125L6185.86203125 5093.42017578L6161.535 5106.86984375L6137.3 5118.71L6205.46 5268.93"
   serif:id="33"
   id="_33" />
    <path
   style="fill:none;stroke:black;stroke-width:4px;"
   d="M5776.75 4975.99L5780.43671875 4957.241875L5782.43634766 4936.87796875L5782.22125 4911.9175L5778.05224609 4884.40796875L5773.94153564 4870.33714844L5768.19015625 4856.396875L5760.58071045 4842.84308594L5750.89580078 4829.93171875L5738.91802979 4817.91871094L5724.43 4807.06"
   serif:id="32"
   id="_32" />
    <path
   style="fill:none;stroke:black;stroke-width:4px;"
   d="M5577.7 4855.43L5582.72103516 4855.91537109L5595.70203125 4858.62859375L5613.51982422 4865.45533203L5623.26653076 4871.00053955L5633.05125 4878.28125L5642.48358643 4887.53317139L5651.17314453 4898.99201172L5658.72952881 4912.893479L5664.76234375 4929.47328125L5668.88119385 4948.96712646L5670.69568359 4971.61072266L5669.81541748 4997.63977783L5665.85 5027.29"
   serif:id="31"
   id="_31" />
    <path
   style="fill:none;stroke:black;stroke-width:4px;"
   d="M5613.91 3944.45L5395.06 3910.12L5364.26581543 3906.26036621L5335.59105469 3904.76214844L5309.01740723 3905.33387207L5284.5265625 3907.6840625L5262.10020996 3911.52124512L5241.72003906 3916.55394531L5207.025 3929.04L5180.29496094 3942.81042969L5161.3834375 3955.5334375L5146.43 3968.51L5134.34549927 4008.35111084L5127.6015332 4045.02990234L5125.87303101 4078.67081299L5128.83492187 4109.39828125L5136.16213501 4137.33674561L5147.52959961 4162.61064453L5162.61224487 4185.3444165L5181.085 4205.6625L5202.62279419 4223.6893335L5226.90055664 4239.54935547L5253.59321655 4253.36700439L5282.37570312 4265.26671875L5312.92294556 4275.37293701L5344.90987305 4283.81009766L5378.01141479 4290.70263916L5411.9025 4296.175L5480.75301758 4303.35693359L5548.86085937 4306.35140625L5613.62545898 4306.15392578L5672.44625 4303.76L5761.85414063 4296.36484375L5796.28 4292.13L5807.84125 4328.2525L5822.65 4380.8L5824.38616455 4399.60056641L5822.14634766 4416.66078125L5816.4637085 4432.05341797L5807.87140625 4445.85125L5796.9026001 4458.12705078L5784.09044922 4468.95359375L5769.96811279 4478.40365234L5755.06875 4486.55L5725.07158203 4499.22265625L5698.36421875 4507.55375L5671.88 4513.52L5322.53 4524.33"
   serif:id="30"
   id="_30" />
    <path
   style="fill:none;stroke:black;stroke-width:4px;"
   d="M5281.06 4524.33L5221.18472412 4528.54642578L5158.97482422 4528.69046875L5095.54356689 4524.52177734L5032.00421875 4515.8L4969.47004639 4502.28478516L4909.05431641 4483.73578125L4879.98876312 4472.49849854L4851.87029541 4459.91263672L4824.83807159 4445.94815186L4799.03125 4430.575L4774.58898895 4413.76313721L4751.65044678 4395.48251953L4730.3547818 4375.70310303L4710.84115234 4354.39484375L4693.24871674 4331.52769775L4677.7166333 4307.07162109L4664.38406036 4280.99656982L4653.39015625 4253.2725L4644.87407928 4223.86936768L4638.97498779 4192.75712891L4635.8320401 4159.90573975L4635.58439453 4125.28515625L4638.37120941 4088.86533447L4644.33164307 4050.61623047L4653.60485382 4010.50780029L4666.33 3968.51L4682.03119415 3927.49397858L4700.03537354 3890.25885986L4720.18593353 3856.66374969L4742.32626953 3826.56775391L4766.29977692 3799.82997833L4791.94985107 3776.30952881L4819.11988739 3755.86551117L4847.65328125 3738.35703125L4877.39342804 3723.64319489L4908.18372314 3711.58310791L4939.86756195 3702.03587616L4972.28833984 3694.86060547L5005.28945221 3689.91640167L5038.71429443 3687.06237061L5072.4062619 3686.1576181L5106.20875 3687.06125L5139.96515411 3689.63237213L5173.51886963 3693.73009033L5239.39181641 3705.94173828L5302.57475342 3722.56904053L5361.81484375 3742.48484375L5415.85925049 3764.56199463L5463.45513672 3787.67333984L5503.34966553 3810.69172607L5534.29 3832.49L5555.75473877 3851.15287354L5576.64884766 3872.22970703L5596.93841553 3895.45719482L5616.58953125 3920.57203125L5653.84076172 3975.41052734L5688.13125 4034.63875L5719.18970703 4096.15025391L5746.74484375 4157.83859375L5770.52537109 4217.59732422L5790.26 4273.32"
   serif:id="29"
   id="_29" />
    <path
   style="fill:none;stroke:black;stroke-width:4px;"
   d="M5303.28 4756.96L5295.1917627 4744.451521L5289.14707031 4729.72326172L5284.93595215 4713.19286377L5282.3484375 4695.27796875L5281.20433594 4656.96525391L5284.035 4618.12625L5289.16066406 4582.10208984L5294.9015625 4552.23390625L5301.51 4524.33"
   serif:id="28"
   id="_28" />
    <path
   style="fill:none;stroke:black;stroke-width:4px;"
   d="M5041.2 4615.16L5060.57922607 4624.23640381L5080.57630859 4631.34638672L5100.933479 4636.68048096L5121.39296875 4640.42921875L5161.58783203 4643.93275391L5199.09875 4643.38125L5231.86357422 4640.29896484L5257.82015625 4636.21015625L5281.06 4631.11"
   serif:id="27"
   id="_27" />
    <path
   style="fill:none;stroke:black;stroke-width:4px;"
   d="M5014.57 4737.89L5022.72171875 4716.6290625L5040.74625 4663.3975L5050.44646484 4629.73863281L5058.99765625 4594.0221875L5065.19408203 4558.22652344L5067.83 4524.33"
   serif:id="26"
   id="_26" />
    <path
   style="fill:none;stroke:black;stroke-width:4px;"
   d="M5060.35 5031.3L5056.41277344 5026.24400391L5045.5453125 5014.43578125L5029.16394531 5000.91498047L5019.34814941 4995.08725342L5008.685 4990.72125L4997.35153809 4988.44692627L4985.52480469 4988.89423828L4973.38184082 4992.69314209L4961.0996875 5000.47359375L4948.85538574 5012.86554932L4936.82597656 5030.49896484L4925.18850098 5054.00379639L4914.12 5084.01"
   serif:id="25"
   id="_25" />
    <path
   style="fill:none;stroke:black;stroke-width:4px;"
   d="M5244.41 5078.58L5202.39368652 5029.34134521L5184.14423889 5011.18719635L5167.62949219 4997.02701172L5152.77111755 4986.62367523L5139.49078613 4979.7400708L5127.71016907 4976.13908234L5117.3509375 4975.58359375L5108.33476257 4977.83648895L5100.58331543 4982.66065186L5094.01826721 4989.81896637L5088.56128906 4999.07431641L5080.65822754 5022.92765869L5076.2475 5052.32375L5074.70247559 5085.36566162L5075.39652344 5120.15646484L5080.9953125 5187.39703125L5088.03082031 5238.87001953L5091.49 5259.4"
   serif:id="24"
   id="_24" />
    <path
   style="fill:none;stroke:black;stroke-width:4px;"
   d="M4730.84 5489.44L4729.35255859 5459.04378906L4728.25171875 5378.6228125L4729.42197021 5324.70037598L4732.57970703 5264.32855469L4738.35520752 5199.52628418L4747.37875 5132.3125L4760.28061279 5064.7061377L4777.69107422 4998.72613281L4788.28399139 4966.97693176L4800.2404126 4936.3914209L4813.63912262 4907.22196716L4828.55890625 4879.7209375L4845.07854828 4854.14069885L4863.2768335 4830.73361816L4883.23254669 4809.75206238L4905.02447266 4791.44839844L4928.73139618 4776.07499329L4954.43210205 4763.88421387L4982.20537506 4755.12842712L5012.13 4750.06L5071.39862061 4744.9157959L5125.25802734 4742.00105469L5173.9479126 4741.24883301L5217.70796875 4742.5921875L5256.77788818 4745.9641748L5291.39736328 4751.29785156L5321.80608643 4758.52627441L5348.24375 4767.5825L5370.95004639 4778.39958496L5390.16466797 4790.91058594L5406.12730713 4805.04855957L5419.07765625 4820.7465625L5429.25540771 4837.93765137L5436.90025391 4856.55488281L5442.25188721 4876.53131348L5445.55 4897.8L5744.34 4802.0L5743.67738281 4788.63460937L5743.6534375 4754.173125L5747.21402344 4707.06757813L5751.25909668 4681.41454102L5757.305 4655.77L5765.71996582 4631.19045898L5776.87222656 4608.73242188L5791.13001465 4589.45239258L5799.53855408 4581.33428833L5808.8615625 4574.406875L5819.14506897 4568.80221558L5830.43510254 4564.65237305L5842.77769226 4562.0894104L5856.21886719 4561.24539063L5870.80465637 4562.25237671L5886.58108887 4565.24243164L5903.59419373 4570.34761841L5921.89 4577.7L5927.7703125 4599.08859375L5931.92746094 4621.84869141L5934.0575 4649.11875L5932.03160156 4678.24833984L5928.79491699 4692.68219971L5923.7209375 4706.58703125L5916.54355957 4719.63153076L5906.99667969 4731.48439453L5894.81419434 4741.81431885L5879.73 4750.29L5917.33515625 4733.5540625L5956.30505859 4718.81496094L6001.57625 4705.3225L6024.90054932 4700.33143066L6047.79103516 4697.19722656L6069.57799561 4696.43495605L6089.59171875 4698.5596875L6107.16249268 4704.08648926L6121.62060547 4713.53042969L6127.47312897 4719.88228577L6132.29634521 4727.40657715L6136.00654022 4736.16768738L6138.52 4746.23L6140.33608887 4766.19191406L6138.53667969 4783.29046875L6133.56775879 4797.74550781L6125.8753125 4809.776875L6115.90532715 4819.60441406L6104.10378906 4827.44796875L6090.91668457 4833.52738281L6076.79 4838.0625L6047.50183594 4843.37921875L6019.8071875 4845.156875L5983.47 4845.13L6003.27453125 4862.804375L6020.84443359 4881.8921875L6037.13875 4905.1425L6043.31052979 4917.70251953L6047.36697266 4930.551875L6048.70926514 4943.44013672L6046.73859375 4956.116875L6040.85614502 4968.33166016L6030.46310547 4979.8340625L6014.96066162 4990.37365234L5993.75 4999.7L5978.62408447 5003.93192383L5964.98095703 5005.53445312L5952.75067139 5004.83272461L5941.86328125 5002.151875L5932.24884033 4997.81704102L5923.83740234 4992.15335938L5910.34375 4978.14L5900.82275391 4962.71289062L5894.71484375 4948.473125L5890.5 4933.96L5506.97 5093.3L5523.87640625 5116.13921875L5541.48201172 5141.86783203L5562.05375 5174.62875L5583.24001953 5212.54169922L5602.68921875 5253.72640625L5618.04974609 5296.30259766L5623.46188232 5317.52491455L5626.97 5338.39"
   serif:id="23"
   id="_23" />
    <path
   style="fill:none;stroke:black;stroke-width:4px;"
   d="M3639.41 5235.25L3661.95728516 5227.77363281L3723.01765625 5205.7484375L3812.71888672 5169.78027344L3865.22475342 5146.75690918L3921.18875 5120.475L3979.37684814 5091.01027832L4038.55501953 5058.43847656L4097.48923584 5022.83532715L4154.94546875 4984.2765625L4209.68968994 4942.83791504L4260.48787109 4898.59511719L4284.02156281 4875.44582825L4306.10598389 4851.62390137L4326.5868808 4827.1388031L4345.31 4802.0L4346.85056641 4833.34232422L4353.37078125 4915.67984375L4359.38818604 4970.49237061L4367.71841797 5031.47837891L4378.71744873 5096.44609619L4392.74125 5163.20375L4410.14579346 5229.55956787L4431.28705078 5293.32177734L4443.37018829 5323.54535004L4456.52099365 5352.29860596L4470.78396332 5379.30757355L4486.20359375 5404.29828125L4502.82438141 5426.99675751L4520.69082275 5447.12903076L4539.84741425 5464.42112946L4560.33865234 5478.59908203L4582.20903351 5489.38891693L4605.5030542 5496.5166626L4630.26521088 5499.70834747L4656.54 5498.69"
   serif:id="22"
   id="_22" />
    <path
   style="fill:none;stroke:black;stroke-width:4px;"
   d="M4345.31 5566.37L4326.78486542 5565.91034485L4308.40447021 5562.73811035L4290.19788971 5557.03214294L4272.19419922 5548.97128906L4254.42247406 5538.73439514L4236.91178955 5526.50030762L4202.78984375 5496.7559375L4170.06096436 5461.1689502L4138.95775391 5421.17011719L4109.71281494 5378.19020996L4082.55875 5333.66L4057.72816162 5289.01025879L4035.45365234 5245.67175781L3999.50328125 5168.6515625L3976.56845703 5114.04558594L3968.51 5093.3"
   serif:id="21"
   id="_21" /><path
   inkscape:connector-curvature="0"
   id="path19"
   style="fill:none;stroke:#000000;stroke-width:4px"
   d="M4404.13 6422.51L4423.0037 6421.5397L4440.7516 6418.6918L4457.3608 6414.0611L4472.8188 6407.7423L4487.1128 6399.8303L4500.2303 6390.4196L4512.1586 6379.605L4522.885 6367.4812L4532.3969 6354.1431L4540.6816 6339.6853L4547.7264 6324.2025L4553.5187 6307.7895L4561.2953 6272.5518L4563.91 6234.73L4562.9398 6215.5418L4560.0922 6196.9053L4555.462 6178.9152L4549.1437 6161.6662L4541.2323 6145.253L4531.8222 6129.7703L4521.0082 6115.3127L4508.885 6101.975L4495.5473 6089.8518L4481.0897 6079.0378L4465.607 6069.6277L4449.1938 6061.7163L4431.9448 6055.398L4413.9547 6050.7678L4395.3182 6047.9202L4376.13 6046.95L4356.9418 6047.9202L4338.3053 6050.7678L4320.3152 6055.398L4303.0662 6061.7163L4286.653 6069.6277L4271.1703 6079.0378L4256.7127 6089.8518L4243.375 6101.975L4231.2518 6115.3127L4220.4378 6129.7703L4211.0277 6145.253L4203.1162 6161.6662L4196.798 6178.9152L4192.1678 6196.9053L4189.3202 6215.5418L4188.35 6234.73L4189.1405 6253.9166L4191.4803 6272.5518L4195.3215 6290.5411L4200.6162 6307.7895L4207.3168 6324.2025L4215.3753 6339.6853L4224.744 6354.1431L4235.375 6367.4812L4247.2205 6379.605L4260.2328 6390.4196L4274.364 6399.8303L4289.5662 6407.7423L4305.7918 6414.0611L4322.9928 6418.6918L4341.1215 6421.5397L4360.13 6422.51" />
    
    <path
   style="fill:none;stroke:black;stroke-width:4px;"
   d="M5934.88 5972.89L4595.35 6161.1"
   serif:id="19"
   id="_19" /><path
   inkscape:connector-curvature="0"
   id="path23"
   style="fill:none;stroke:#000000;stroke-width:4px"
   d="M6247.88 6128.76L6266.7537 6127.7897L6284.5016 6124.9418L6301.1108 6120.3111L6316.5688 6113.9923L6330.8628 6106.0803L6343.9803 6096.6696L6355.9086 6085.855L6366.635 6073.7312L6376.1469 6060.3931L6384.4316 6045.9353L6391.4764 6030.4525L6397.2687 6014.0395L6405.0453 5978.8018L6407.66 5940.98L6406.6898 5921.7918L6403.8422 5903.1553L6399.212 5885.1652L6392.8937 5867.9162L6384.9823 5851.503L6375.5722 5836.0203L6364.7582 5821.5627L6352.635 5808.225L6339.2973 5796.1018L6324.8397 5785.2878L6309.357 5775.8777L6292.9438 5767.9663L6275.6948 5761.648L6257.7047 5757.0178L6239.0682 5754.1702L6219.88 5753.2L6200.6918 5754.1702L6182.0553 5757.0178L6164.0652 5761.648L6146.8162 5767.9663L6130.403 5775.8777L6114.9203 5785.2878L6100.4627 5796.1018L6087.125 5808.225L6075.0018 5821.5627L6064.1878 5836.0203L6054.7777 5851.503L6046.8662 5867.9162L6040.548 5885.1652L6035.9178 5903.1553L6033.0702 5921.7918L6032.1 5940.98L6032.8905 5960.1666L6035.2303 5978.8018L6039.0715 5996.7911L6044.3662 6014.0395L6051.0668 6030.4525L6059.1253 6045.9353L6068.494 6060.3931L6079.125 6073.7312L6090.9705 6085.855L6103.9828 6096.6696L6118.114 6106.0803L6133.3162 6113.9923L6149.5418 6120.3111L6166.7428 6124.9418L6184.8715 6127.7897L6203.88 6128.76" />
    
    <path
   style="fill:none;stroke:black;stroke-width:4px;"
   d="M4138.4 6202.37L3989.94742187 6220.55847656L3854.653125 6233.7934375L3734.56226562 6242.85417969L3631.72 6248.52L3485.961875 6252.7840625L3433.74 6252.82L3550.55 5093.3L3560.49009766 5116.95978516L3590.73328125 5179.33328125L3613.66676025 5220.66265869L3641.91388672 5266.42044922L3675.55395264 5314.85664795L3714.66625 5364.22125L3759.3300708 5412.76425049L3783.76858124 5436.18077362L3809.62470703 5458.73564453L3836.90835968 5480.21011261L3865.62945068 5500.38542725L3895.79789154 5519.04283783L3927.42359375 5535.96359375L3960.51646881 5550.9289444L3995.08642822 5563.72013916L4031.14338348 5574.11842743L4068.69724609 5581.90505859L4107.75792755 5586.86128204L4148.33533936 5588.76834717L4190.43939301 5587.40750336L4234.08 5582.56L4348.19561768 5563.53155029L4508.12119141 5534.70474609L4936.78953125 5457.27734375L5191.22595947 5413.48738037L5462.85966797 5369.52033203L5744.53748779 5327.78151611L6029.10625 5290.67625L6170.2393692 5274.6128598L6309.41278564 5260.60985107L6445.73235321 5248.96788849L6578.30392578 5239.98763672L6706.23335724 5233.96976044L6828.62650146 5231.21492432L6944.58921234 5232.02379303L7053.22734375 5236.69703125L7153.64674957 5245.53530365L7200.49500973 5251.61028538L7244.95328369 5258.8392749L7286.9098032 5267.25985531L7326.25279999 5276.90960968L7362.87050579 5287.8261211L7396.65115234 5300.04697266L7427.48297138 5313.60974743L7455.25419464 5328.5520285L7479.85305386 5344.91139896L7501.16778076 5362.72544189L7519.08660709 5382.03174038L7533.49776459 5402.8678775L7544.28948498 5425.27143635L7551.35 5449.28L7559.5115625 5497.04140625L7560.78136719 5516.19904297L7559.8075 5532.60875L7556.31269531 5546.57111328L7550.0196875 5558.38671875L7540.65121094 5568.35615234L7527.93 5576.78L7484.00865234 5595.65275391L7389.63421875 5632.52140625L7257.42111328 5681.01529297L7099.98375 5734.76375L7015.74797607 5761.61760986L6929.93654297 5787.39611328L6844.12625244 5811.30292725L6759.89390625 5832.54171875L6678.81630615 5850.31615479L6602.47025391 5863.82990234L6532.43255127 5872.28662842L6500.2720816 5874.36975433L6470.28 5874.89"
   serif:id="17"
   id="_17" />
    
    

    
</g>
    
    
    
    
    
    
    
    
    
</svg>