<?xml version="1.0" encoding="UTF-8" standalone="no"?>
<svg
   xmlns:serif="http://www.serif.com/"
   xmlns:dc="http://purl.org/dc/elements/1.1/"
   xmlns:cc="http://creativecommons.org/ns#"
   xmlns:rdf="http://www.w3.org/1999/02/22-rdf-syntax-ns#"
   xmlns:svg="http://www.w3.org/2000/svg"
   xmlns="http://www.w3.org/2000/svg"
   xmlns:sodipodi="http://sodipodi.sourceforge.net/DTD/sodipodi-0.dtd"
   xmlns:inkscape="http://www.inkscape.org/namespaces/inkscape"
   width="100%"
   height="100%"
   viewBox="0 0 7938 7938"
   version="1.1"
   xml:space="preserve"
   style="fill-rule:evenodd;clip-rule:evenodd;stroke-linecap:round;stroke-linejoin:round;stroke-miterlimit:1.5;"
   id="svg45"
   sodipodi:docname="horse.svg"
   inkscape:version="0.92.3 (2405546, 2018-03-11)"><sodipodi:namedview
   pagecolor="#ffffff"
   bordercolor="#666666"
   borderopacity="1"
   objecttolerance="10"
   gridtolerance="10"
   guidetolerance="10"
   inkscape:pageopacity="0"
   inkscape:pageshadow="2"
   inkscape:window-width="2560"
   inkscape:window-height="1320"
   id="namedview47"
   showgrid="false"
   inkscape:zoom="0.16"
   inkscape:cx="2918.1703"
   inkscape:cy="3861.1135"
   inkscape:window-x="0"
   inkscape:window-y="27"
   inkscape:window-maximized="1"
   inkscape:current-layer="svg45" /><metadata
   id="metadata51"><rdf:RDF><cc:Work
       rdf:about=""><dc:format>image/svg+xml</dc:format><dc:type
         rdf:resource="http://purl.org/dc/dcmitype/StillImage" /><dc:title /></cc:Work></rdf:RDF></metadata><defs
   id="defs49" />
    
    
    <g>
    
    
    
    
    
    
    <path
   id="_1"
   serif:id="1"
   d="M6104.24 1385.09L6104.46 1385.14L6104.67 1385.24L6104.86 1385.36L6105.02 1385.52L6105.16 1385.7L6105.26 1385.91L6105.32 1386.12L6105.35 1386.35L6105.34 1386.58L6105.29 1386.8L6105.21 1387.01L5829.32 1928.38L5580.73 2416.11L5577.19 2423.06L5576.77 2423.2L5576.63 2422.78L5580.16 2415.82L5827.87 1927.64L6099.93 1391.52L6078.54 1409.19L5835.43 1609.96L5614.61 1792.3L5429.45 1945.14L5354.43 2007.05L5293.34 2057.43L5292.24 2056.15L5291.85 2055.67L5290.8 2054.35L5351.9 2003.98L5426.97 1942.13L5612.3 1789.5L5833.38 1607.47L6076.8 1407.08L6103.17 1385.37L6103.36 1385.24L6103.56 1385.15L6103.78 1385.09L6104.01 1385.07L6104.24 1385.09L6104.24 1385.09"
   inkscape:connector-curvature="0" /><path
   id="_2"
   serif:id="2"
   d="M4991.4 2222.07L4999.6523 2245.9301L5009.8605 2268.5712L5021.8459 2290.1147L5035.4304 2310.6818L5066.6827 2349.3723L5102.1902 2385.6133L5140.5256 2420.3751L5180.262 2454.6284L5219.9721 2489.3436L5258.2287 2525.4913L5293.6048 2564.0418L5309.7666 2584.5215L5324.6731 2605.9658L5338.1459 2628.4961L5350.0066 2652.2337L5360.0767 2677.2999L5368.178 2703.8161L5374.1319 2731.9035L5377.7602 2761.6834L5378.8843 2793.2772L5377.326 2826.8062L5372.9068 2862.3916L5365.4483 2900.1549L5354.7722 2940.2172L5340.7 2982.7L5324.4113 3025.2673L5307.2649 3065.5453L5289.3507 3103.5955L5270.7591 3139.4794L5251.5802 3173.2585L5231.9041 3204.9943L5191.4211 3262.5822L5150.0315 3312.7351L5108.4566 3355.9451L5067.4177 3392.7044L5027.6362 3423.505L4989.8335 3448.839L4954.7308 3469.1986L4923.0494 3485.0759L4895.5108 3496.9628L4855.747 3510.7343L4841.21 3514.45L4838.7226 3514.1032L4831.5877 3511.2614L4820.2961 3503.2223L4805.3387 3487.2838L4787.2066 3460.7435L4766.3905 3420.8992L4743.3813 3365.0488L4718.67 3290.49L4709.4038 3250.6747L4706.4795 3215.8225L4709.1044 3185.6028L4716.4859 3159.6855L4727.8316 3137.74L4742.3488 3119.436L4759.2449 3104.4432L4777.7275 3092.4313L4797.0039 3083.0697L4816.2815 3076.0282L4851.6703 3067.5839L4877.5533 3064.4555L4887.59 3064.0"
   style="fill:none;stroke:#000000;stroke-width:4px"
   inkscape:connector-curvature="0" /><path
   d="M5024.99 3042.47L5020.77 3030.8819L5011.3617 2999.998L5001.6429 2955.6392L4998.1913 2930.2257L4996.4912 2903.6262L4997.1524 2876.5685L5000.7844 2849.7801L5007.9971 2823.9885L5019.4002 2799.9214L5035.6032 2778.3064L5045.6954 2768.6458L5057.2161 2759.8711L5070.2417 2752.0732L5084.8485 2745.3431L5101.1125 2739.7717L5119.11 2735.45L5136.9578 2733.1334L5152.7702 2733.3984L5166.62 2736.0653L5178.5798 2740.954L5188.7223 2747.8845L5197.1201 2756.677L5203.846 2767.1513L5208.9727 2779.1277L5212.5727 2792.426L5214.7189 2806.8664L5214.9401 2838.4534L5210.218 2872.4491L5201.1337 2907.4138L5188.269 2941.9076L5172.205 2974.4911L5153.5234 3003.7245L5132.8055 3028.168L5121.8646 3038.1436L5110.6327 3046.382L5099.1825 3052.703L5087.5866 3056.9268L5075.9177 3058.8733L5064.2486 3058.3627L5052.6518 3055.2149L5041.2 3049.25"
   style="fill:none;stroke:#000000;stroke-width:4px"
   id="path40"
   inkscape:connector-curvature="0"
   inkscape:label="_3" /><path
   id="_4"
   serif:id="4"
   d="M5384.25 2810.76L5403.7443 2822.451L5428.4937 2835.7436L5459.457 2849.6022L5497.5925 2862.9913L5543.859 2874.8751L5599.215 2884.2183L5664.6191 2889.9851L5741.03 2891.14L5759.8201 2889.4741L5775.1984 2885.3351L5787.3496 2878.8885L5796.4584 2870.3001L5802.7092 2859.7355L5806.2868 2847.3604L5807.3757 2833.3404L5806.1606 2817.8411L5802.8262 2801.0283L5797.5569 2783.0675L5781.9526 2744.3649L5760.8246 2703.0586L5735.65 2660.4738L5707.9057 2617.9357L5679.0687 2576.7696L5624.0244 2503.8545L5582.3329 2452.3306L5565.81 2432.8L5426.8225 2253.7463L5327.7122 2127.0883L5275.19 2062.04L5259.4106 2034.3453L5227.09 1972.9677L5181.7869 1891.4884L5155.379 1847.4548L5127.06 1803.4888L5097.2748 1761.2879L5066.4681 1722.5499L5035.0849 1688.9723L5003.57 1662.253L4987.9022 1651.9956L4972.3682 1644.0894L4957.0237 1638.7466L4941.9244 1636.1793L4927.1257 1636.5998L4912.6834 1640.2203L4898.6529 1647.2529L4885.09 1657.91L4872.918 1671.2715L4862.9459 1686.1876L4855.0547 1702.5286L4849.1255 1720.1647L4845.0394 1738.9661L4842.6775 1758.8031L4841.9208 1779.5458L4842.6505 1801.0645L4848.093 1845.911L4858.0536 1892.3043L4871.581 1939.2062L4887.7237 1985.5788L4905.5304 2030.3836L4924.0497 2072.5828L4959.4202 2145.0111L4986.224 2194.5586L4996.85 2212.92L4989.5907 2221.536L4979.9853 2230.9792L4965.9239 2242.6663L4947.0522 2255.7127L4923.0161 2269.234L4893.4613 2282.3454L4858.0337 2294.1625L4816.3792 2303.8006L4768.1435 2310.3751L4712.9724 2313.0014L4650.5117 2310.795L4580.4073 2302.8712L4502.3051 2288.3455L4415.8507 2266.3333L4320.69 2235.95L4238.627 2208.8736L4152.8796 2183.9438L4063.9735 2161.5781L3972.4345 2142.1939L3878.7884 2126.2087L3783.5607 2114.0399L3687.2772 2106.1049L3590.4637 2102.8213L3493.6459 2104.6063L3397.3495 2111.8774L3349.5611 2117.7008L3302.1001 2125.0522L3255.0324 2133.9839L3208.4236 2144.548L3162.3394 2156.7967L3116.8456 2170.7822L3072.0078 2186.5567L3027.8919 2204.1723L2984.5634 2223.6813L2942.0881 2245.1358L2900.5317 2268.588L2859.96 2294.09L2821.8188 2321.0221L2787.4036 2348.6889L2756.5541 2377.032L2729.1102 2405.9931L2704.9117 2435.514L2683.7986 2465.5362L2665.6106 2496.0014L2650.1877 2526.8514L2637.3695 2558.0277L2626.9961 2589.4721L2618.9073 2621.1263L2612.9429 2652.9318L2608.9427 2684.8304L2606.7466 2716.7637L2606.1945 2748.6734L2607.1262 2780.5012L2612.8005 2843.6778L2622.4882 2905.8268L2634.9082 2966.4816L2648.7792 3025.1755L2675.7497 3134.8142L2686.2867 3184.8258L2693.15 3231.01L2694.3624 3253.0955L2693.4898 3275.2071L2690.6664 3297.297L2686.0264 3319.3177L2679.704 3341.2214L2671.8334 3362.9604L2651.9845 3405.7536L2627.5534 3447.3158L2599.6138 3487.2655L2569.2394 3525.2211L2537.5037 3560.8013L2505.4807 3593.6243L2474.2438 3623.3087L2418.4236 3671.7358L2378.6325 3703.0303L2363.46 3714.14"
   style="fill:none;stroke:#000000;stroke-width:4px"
   inkscape:connector-curvature="0" /><path
   id="_5"
   serif:id="5"
   d="M2570.16 3797.14L2555.6529 3800.9289L2539.9812 3801.7018L2523.4346 3799.8411L2506.303 3795.7292L2471.4442 3782.2817L2437.7238 3764.4187L2407.4603 3745.1997L2382.9727 3727.6839L2360.6 3710.0L2346.7977 3712.4359L2332.4963 3716.6931L2303.1628 3729.5789L2274.1336 3746.4737L2246.9425 3765.1938L2204.2109 3799.3742L2187.24 3814.65L2571.8 3968.51L2579.1195 3957.4701L2584.9321 3945.2643L2592.6073 3918.3917L2595.968 3889.9655L2596.1563 3862.0588L2594.3144 3836.7447L2591.5845 3816.0964L2588.03 3797.09L2603.9327 3792.7895L2619.8695 3785.8593L2635.822 3776.434L2651.7715 3764.6478L2667.6993 3750.6351L2683.587 3734.5303L2715.1673 3696.582L2746.3637 3651.878L2777.0274 3601.4931L2807.0095 3546.5025L2836.1613 3487.9812L2864.3339 3427.0043L2891.3787 3364.6467L2941.4895 3240.0898L2985.3034 3122.9108L3021.63 3021.71L3051.9896 2938.3282L3066.6234 2901.6874L3081.6253 2868.2577L3097.5447 2837.9222L3114.9308 2810.5642L3134.3328 2786.067L3156.3 2764.3137L3181.3815 2745.1877L3210.1267 2728.5722L3243.0847 2714.3504L3280.8047 2702.4055L3323.836 2692.6207L3372.7279 2684.8794L3428.0294 2679.0648L3490.29 2675.06L3522.1425 2674.9428L3551.8267 2677.619L3579.4205 2682.9228L3605.0016 2690.6878L3628.6476 2700.7481L3650.4364 2712.9376L3670.4456 2727.0901L3688.7531 2743.0395L3705.4366 2760.6198L3720.5737 2779.6649L3734.2423 2800.0086L3746.52 2821.4849L3757.4847 2843.9277L3767.214 2867.1708L3783.2775 2915.3938L3795.3325 2964.825L3804.0009 3014.1359L3809.9047 3061.9975L3813.6656 3107.0811L3817.2469 3183.5992L3819.72 3233.06L3821.7119 3289.459L3821.0342 3384.4114L3814.6338 3633.1738L3802.4 3968.51"
   style="fill:none;stroke:#000000;stroke-width:4px"
   inkscape:connector-curvature="0" /><path
   id="_6"
   serif:id="6"
   d="M3997.38 3988.43L3984.4119 3996.535L3969.8063 4002.0846L3953.9046 4005.3591L3937.0483 4006.6391L3901.8371 4004.3371L3866.9038 3997.4225L3834.9793 3988.1388L3808.7948 3978.7297L3784.57 3968.51L3773.0297 3972.6302L3762.782 3978.6457L3753.7513 3986.2583L3745.862 3995.1698L3733.2051 4015.6969L3724.2063 4037.8413L3718.2603 4059.2173L3714.7623 4077.4395L3712.69 4094.88L3801.8213 4109.6125L3889.4683 4125.4237L3984.71 4144.55L4005.5627 4147.0109L4021.5645 4144.7176L4033.1991 4138.3043L4040.9502 4128.4048L4045.3015 4115.6535L4046.7367 4100.6843L4045.7396 4084.1314L4042.7937 4066.6287L4032.991 4031.3108L4021.198 3999.8033L4007.12 3968.51L4011.85 3732.4488L4014.5956 3502.7052L4014.78 3256.56L4016.4341 3138.1232L4019.6144 3080.6159L4024.7525 3024.7884L4032.1401 2971.0449L4042.069 2919.7895L4054.8309 2871.4265L4070.7175 2826.36L4090.0206 2784.9943L4113.032 2747.7336L4126.0194 2730.769L4140.0433 2714.9821L4155.1401 2700.4237L4171.3462 2687.1441L4188.6983 2675.1939L4207.2327 2664.6236L4226.9859 2655.4838L4247.9943 2647.825L4270.2945 2641.6976L4293.9228 2637.1524L4318.9158 2634.2396L4345.31 2633.01L4371.3417 2634.3107L4395.2864 2638.8361L4417.239 2646.4079L4437.2947 2656.8474L4455.5484 2669.9763L4472.0952 2685.616L4487.03 2703.588L4500.4478 2723.7137L4512.4437 2745.8149L4523.1128 2769.7128L4532.5499 2795.229L4540.8501 2822.1851L4554.42 2879.7026L4564.5825 2940.8375L4572.0977 3004.1617L4577.7258 3068.2471L4586.3609 3192.99L4590.8882 3250.7915L4596.5687 3303.6423L4604.1626 3350.1144L4614.43 3388.78L4626.82 3419.8748L4640.1179 3444.9555L4654.0882 3464.5751L4668.4953 3479.2866L4683.1036 3489.643L4697.6775 3496.1975L4711.9815 3499.5029L4725.78 3500.1125L4738.8374 3498.5792L4750.9181 3495.456L4771.2072 3486.6522L4784.7627 3478.1254L4789.7 3474.3"
   style="fill:none;stroke:#000000;stroke-width:4px"
   inkscape:connector-curvature="0" /><path
   id="_7"
   serif:id="7"
   d="M4414.38 4024.88L4414.417 3996.6539L4416.922 3912.5613L4425.4832 3773.4805L4433.1565 3683.594L4443.6895 3580.29L4448.7107 3527.894L4451.7842 3480.401L4453.099 3437.3945L4452.8442 3398.4581L4448.3818 3331.1299L4439.9095 3275.085L4428.9397 3226.992L4416.9848 3183.5194L4405.5573 3141.3359L4396.1695 3097.11L4389.8584 3072.5027L4379.2276 3045.4092L4364.9292 3016.3916L4347.6154 2986.012L4306.5509 2923.4154L4261.252 2862.1163L4216.9365 2806.6113L4178.8223 2761.3973L4142.0695 2719.83"
   style="fill:none;stroke:#000000;stroke-width:4px"
   inkscape:connector-curvature="0" /><path
   id="_8"
   serif:id="8"
   d="M4050.0 2876.79L4064.5036 2884.9949L4078.3833 2895.5222L4091.6498 2908.2025L4104.314 2922.8665L4127.8779 2957.4679L4149.1608 2997.9714L4168.2483 3043.0218L4185.2262 3091.264L4200.1803 3141.3431L4213.1962 3191.9038L4233.7567 3289.0499L4247.5936 3371.8617L4257.84 3451.12L4240.06 4014.18L4231.2439 4023.831L4223.6471 4034.4845L4211.752 4057.9019L4203.6569 4082.6384L4198.6437 4106.9L4195.9945 4128.8929L4194.9911 4146.8231L4195.0501 4163.32L4202.1647 4167.4447L4214.716 4171.6153L4252.8751 4179.9216L4303.0192 4187.8946L4358.6401 4195.19L4460.2801 4206.3709L4505.7301 4210.71L4508.6091 4194.8144L4508.5691 4178.6871L4505.9867 4162.5015L4501.2393 4146.4311L4494.7042 4130.6494L4486.7585 4115.3299L4468.1441 4086.7712L4448.4137 4062.1431L4430.5846 4042.8333L4412.7004 4025.72L4389.0711 4033.2621L4363.2466 4036.5341L4336.8747 4036.5441L4311.6029 4034.2945L4270.9504 4027.0467L4254.4704 4022.842"
   style="fill:none;stroke:#000000;stroke-width:4px"
   inkscape:connector-curvature="0" /><path
   id="_9"
   serif:id="9"
   d="M3251.13 2719.83L3264.2029 2737.0828L3275.3663 2758.8779L3284.7223 2784.8876L3292.3728 2814.7845L3298.4196 2848.2411L3302.9648 2884.9297L3307.958 2966.6931L3308.1677 3057.4544L3304.4095 3154.5933L3297.4988 3255.4894L3288.2512 3357.5225L3266.0072 3554.5183L3244.2014 3724.6181L3229.3577 3846.8595L3226.5853 3883.4825L3226.7183 3894.5232L3228.0 3900.28L3234.7791 3917.5127L3240.1148 3942.9856L3247.1213 4005.66L3250.3495 4062.3194L3251.13 4086.98L3237.6252 4093.2566L3221.3164 4096.9383L3202.4785 4098.2643L3181.3863 4097.4737L3133.538 4090.4998L3079.97 4077.93"
   style="fill:none;stroke:#000000;stroke-width:4px"
   inkscape:connector-curvature="0" /><path
   id="_10"
   serif:id="10"
   d="M3219.46 3890.78L3203.0993 3899.6293L3185.5168 3905.7127L3167.0267 3909.3332L3147.9431 3910.7936L3128.5805 3910.3967L3109.2529 3908.4455L3071.96 3901.0913L3038.5784 3891.1537L3011.6219 3881.0558L2987.04 3870.07"
   style="fill:none;stroke:#000000;stroke-width:4px"
   inkscape:connector-curvature="0" /><path
   id="_11"
   serif:id="11"
   d="M3055.97 4070.93L2981.2111 4048.8145L2918.7363 4027.1388L2859.96 4004.1L2860.3951 3988.6806L2863.6921 3973.8028L2869.4521 3959.5291L2877.2766 3945.922L2886.7666 3933.0442L2897.5234 3920.9581L2921.2425 3899.4113L2945.2438 3881.7817L2966.3372 3868.5698L2987.04 3857.4L3002.2277 3785.4698L3021.9387 3708.8513L3041.3255 3637.1545L3055.54 3579.99L3065.8809 3525.0967L3073.5561 3470.4589L3078.8415 3416.5301L3082.0127 3363.7638L3083.3455 3312.6131L3083.1157 3263.5317L3079.0713 3173.39L3072.0854 3096.9658L3064.3642 3037.8863L3055.54 2986.27"
   style="display:inline;fill:none;stroke:#000000;stroke-width:4px"
   sodipodi:insensitive="true"
   inkscape:connector-curvature="0" /><path
   id="_12"
   serif:id="12"
   d="M2874.18 2269.43L2864.1568 2238.8952L2851.6216 2204.9351L2834.0652 2162.2537L2811.4833 2113.6568L2783.8719 2061.9498L2751.2267 2009.9382L2733.0152 1984.6949L2713.5437 1960.4275L2692.8118 1937.4868L2670.8188 1916.2233L2647.5643 1896.9879L2623.0477 1880.1312L2597.2685 1866.0038L2570.2263 1854.9566L2541.9204 1847.34L2512.3505 1843.505L2481.5159 1843.8021L2449.4161 1848.582L2416.0506 1858.1955L2381.419 1872.9932L2345.5206 1893.3258L2308.355 1919.544L2269.9216 1951.9985L2230.22 1991.04L2155.5655 2073.1702L2092.3411 2149.7775L2039.6341 2220.8929L1996.5322 2286.5473L1962.1226 2346.7717L1935.4929 2401.597L1915.7303 2451.054L1901.9225 2495.1738L1893.1568 2533.9871L1888.5206 2567.5251L1887.1014 2595.8185L1887.9866 2618.8983L1890.2636 2636.7954L1893.0199 2649.5408L1896.32 2659.7L1915.3281 2637.3567L1936.5437 2614.1391L1963.305 2587.0788L1993.9157 2559.3167L2026.6794 2533.9939L2043.3384 2523.2288L2059.8996 2514.2513L2076.1508 2507.4542L2091.88 2503.23L2128.1013 2496.907L2172.4789 2487.9617L2220.9687 2474.5771L2245.4917 2465.6523L2269.5262 2454.9363L2292.5667 2442.2019L2314.1074 2427.2221L2333.6431 2409.7697L2350.668 2389.6177L2364.6767 2366.5388L2375.1636 2340.306L2381.6232 2310.6921L2383.55 2277.47L2384.4011 2255.2084L2387.5223 2235.1703L2392.75 2217.304L2399.9206 2201.5579L2408.8706 2187.8801L2419.4364 2176.219L2431.4544 2166.5228L2444.7611 2158.7398L2459.1929 2152.8184L2474.5862 2148.7068L2490.7775 2146.3532L2507.6032 2145.706L2524.8998 2146.7134L2542.5036 2149.3237L2577.9788 2159.1462L2612.7202 2174.7599L2645.4194 2195.7508L2660.5943 2208.1334L2674.7679 2221.7052L2687.7767 2236.4145L2699.457 2252.2095L2709.6455 2269.0386L2718.1783 2286.8499L2724.8922 2305.5918L2729.6233 2325.2126L2732.2082 2345.6605L2732.4834 2366.8839L2730.2851 2388.8309L2725.45 2411.45"
   style="fill:none;stroke:#000000;stroke-width:4px"
   inkscape:connector-curvature="0" />

   </g>
</svg>