<?xml version="1.0" encoding="UTF-8" standalone="no"?>
<svg
   xmlns:dc="http://purl.org/dc/elements/1.1/"
   xmlns:cc="http://creativecommons.org/ns#"
   xmlns:rdf="http://www.w3.org/1999/02/22-rdf-syntax-ns#"
   xmlns:svg="http://www.w3.org/2000/svg"
   xmlns="http://www.w3.org/2000/svg"
   xmlns:sodipodi="http://sodipodi.sourceforge.net/DTD/sodipodi-0.dtd"
   xmlns:inkscape="http://www.inkscape.org/namespaces/inkscape"
   width="100%"
   height="100%"
   viewBox="0 0 7938 7938"
   version="1.1"
   xml:space="preserve"
   style="fill-rule:evenodd;clip-rule:evenodd;stroke-linecap:round;stroke-linejoin:round;stroke-miterlimit:1.5;"
   id="svg45"
   sodipodi:docname="horse.svg"
   inkscape:version="0.92.3 (2405546, 2018-03-11)"><sodipodi:namedview
   pagecolor="#ffffff"
   bordercolor="#666666"
   borderopacity="1"
   objecttolerance="10"
   gridtolerance="10"
   guidetolerance="10"
   inkscape:pageopacity="0"
   inkscape:pageshadow="2"
   inkscape:window-width="2560"
   inkscape:window-height="1320"
   id="namedview47"
   showgrid="false"
   inkscape:zoom="0.16"
   inkscape:cx="1932.396"
   inkscape:cy="3861.014"
   inkscape:window-x="0"
   inkscape:window-y="27"
   inkscape:window-maximized="1"
   inkscape:current-layer="svg45" /><metadata
   id="metadata51">
<graffiti>
<canvas scale="1" y="1" z="1"></canvas>
</graffiti>

<rdf:RDF><cc:Work
       rdf:about=""><dc:format>image/svg+xml</dc:format><dc:type
         rdf:resource="http://purl.org/dc/dcmitype/StillImage" /><dc:title /></cc:Work></rdf:RDF></metadata><defs
   id="defs49" />
    

    
    <g>
    
    
    
    <path
   inkscape:connector-curvature="0"
   id="_1"
   d="M6104.24 1385.09L5576.63 2422.78L6099.93 1391.52L5291.85 2055.67L6104.24 1385.09L6104.24 1385.09" /><path
   inkscape:connector-curvature="0"
   id="_2"
   d="M4991.4 2222.07L5075.80864687 2358.12559688L5196.025425 2469.3186L5309.61246562 2584.34567813L5374.1319 2731.9035L5329.2913 3016.7946125L5184.9542 3270.4183L5031.1616625 3420.9496L4838.7226 3514.1032L4753.8563625 3394.6358125L4709.4038 3250.6747L4749.7268 3114.2657875L4887.59 3064.0"
   style="fill:none;stroke:#000000;stroke-width:4px" /><path
   inkscape:connector-curvature="0"
   id="path40"
   d="M5024.99 3042.47L4998.2603 2870.8806375L5094.4601 2742.0505L5182.5639125 2746.2295875L5214.8612 2827.1858L5177.9978375 2966.0131875L5075.9177 3058.8733L5041.2 3049.25"
   style="fill:none;stroke:#000000;stroke-width:4px" /><path
   inkscape:connector-curvature="0"
   id="_4"
   d="M5384.25 2810.76L5573.2827875 2880.639775L5775.1984 2885.3351L5801.719075 2793.7124875L5755.6543 2694.3126L5321.3296 2119.1835L5169.9682875 1873.1014875L4987.9022 1651.9956L4879.71355 1665.40055L4841.9208 1779.5458L4894.6046125 2004.3382625L4996.85 2212.92L4757.76825 2311.5672125L4492.4593 2285.8387L3798.1646 2115.9061L3246.3579125 2135.9165375L2985.77171094 2223.26565156L2756.5541 2377.032L2616.1514875 2641.8706625L2630.6406 2945.6404L2685.002 3177.5475125L2651.9845 3405.7536L2363.46 3714.14"
   style="fill:none;stroke:#000000;stroke-width:4px" /><path
   inkscape:connector-curvature="0"
   id="_5"
   d="M2570.16 3797.14L2453.9108875 3773.003475L2350.5947 3711.7658L2187.24 3814.65L2571.8 3968.51L2588.03 3797.09L2737.6466125 3666.9590125L2836.1613 3487.9812L3097.5447 2837.9222L3288.5697625 2700.138175L3532.2614 2675.8551L3721.6473125 2783.11995L3800.6096 2994.8445L3819.697025 3481.1811625L3802.4 3968.51"
   style="fill:none;stroke:#000000;stroke-width:4px" /><path
   inkscape:connector-curvature="0"
   id="_6"
   d="M3997.38 3988.43L3884.7261625 4000.7507L3773.0297 3972.6302L3700.2110625 4121.6075875L3684.77796406 4188.60214531L3712.69 4094.88L4021.5645 4144.7176L4040.7676875 4055.510675L4007.3235 3958.3521L4023.3389 3040.1472L4085.0685625 2796.1597L4158.62142969 2698.07525625L4270.2945 2641.6976L4417.2684 2648.7359875L4516.5855 2755.0923L4578.1466375 3086.2913875L4626.82 3419.8748L4694.6351625 3493.3955875L4789.7 3474.3"
   style="fill:none;stroke:#000000;stroke-width:4px" /><path
   inkscape:connector-curvature="0"
   id="_7"
   d="M4414.38 4024.88L4448.3818 3331.1299L4359.8985 3007.5646L4142.0695 2719.83"
   style="fill:none;stroke:#000000;stroke-width:4px" /><path
   inkscape:connector-curvature="0"
   id="_8"
   d="M4050.0 2876.79L4168.58295 3040.9597875L4223.7147 3241.6026L4255.3232625 3568.26015L4243.7307 3897.9342L4211.752 4057.9019L4194.9238625 4136.5675L4244.4984 4178.0982L4505.7301 4210.71L4482.989425 4108.3597375L4412.7004 4025.72L4254.4704 4022.842"
   style="fill:none;stroke:#000000;stroke-width:4px" /><path
   inkscape:connector-curvature="0"
   id="_9"
   d="M3251.13 2719.83L3306.6859375 2918.2210625L3305.4182 3128.5207L3228.0 3900.28L3251.13 4086.98L3079.97 4077.93"
   style="fill:none;stroke:#000000;stroke-width:4px" /><path
   inkscape:connector-curvature="0"
   id="_10"
   d="M3219.46 3890.78L3102.50615 3907.638225L2987.04 3870.07"
   style="fill:none;stroke:#000000;stroke-width:4px" /><path
   inkscape:connector-curvature="0"
   id="_11"
   d="M3055.97 4070.93L2859.96 4004.1L2907.23525 3912.6076125L2989.1389 3847.4592L3057.01385 3562.68515L3083.1552 3271.9738L3055.54 2986.27"
   style="display:inline;fill:none;stroke:#000000;stroke-width:4px" /><path
   inkscape:connector-curvature="0"
   id="_12"
   d="M2874.18 2269.43L2761.2631375 2023.542175L2560.4153 1852.3167L2439.36982656 1851.71916719L2331.7690125 1902.8010125L2155.5655 2073.1702L1970.664875 2329.6267125L1889.2689 2628.977L1906.43353594 2645.16673438L1951.2573375 2602.6295L1989.24029531 2557.67239062L1985.8824 2566.6025L2164.6755 2487.500375L2340.1998 2402.0087L2384.3082875 2268.2582875L2454.1606 2154.8832L2563.90147656 2154.4998875L2661.4580875 2209.389925L2723.18830469 2301.1683L2725.45 2411.45"
   style="fill:none;stroke:#000000;stroke-width:4px" />
</g>
</svg>
