<?xml version="1.0" encoding="UTF-8" standalone="no"?>
<svg
   xmlns:serif="http://www.serif.com/"
   xmlns:dc="http://purl.org/dc/elements/1.1/"
   xmlns:cc="http://creativecommons.org/ns#"
   xmlns:rdf="http://www.w3.org/1999/02/22-rdf-syntax-ns#"
   xmlns:svg="http://www.w3.org/2000/svg"
   xmlns="http://www.w3.org/2000/svg"
   xmlns:sodipodi="http://sodipodi.sourceforge.net/DTD/sodipodi-0.dtd"
   xmlns:inkscape="http://www.inkscape.org/namespaces/inkscape"
   width="100%"
   height="100%"
   viewBox="0 0 7938 7938"
   version="1.1"
   xml:space="preserve"
   style="fill-rule:evenodd;clip-rule:evenodd;stroke-linecap:round;stroke-linejoin:round;stroke-miterlimit:1.5;"
   id="svg45"
   sodipodi:docname="tube.svg"
   inkscape:version="0.92.3 (2405546, 2018-03-11)"><sodipodi:namedview
   pagecolor="#ffffff"
   bordercolor="#666666"
   borderopacity="1"
   objecttolerance="10"
   gridtolerance="10"
   guidetolerance="10"
   inkscape:pageopacity="0"
   inkscape:pageshadow="2"
   inkscape:window-width="2560"
   inkscape:window-height="1320"
   id="namedview47"
   showgrid="false"
   inkscape:zoom="0.16"
   inkscape:cx="2918.1703"
   inkscape:cy="4611.1135"
   inkscape:window-x="0"
   inkscape:window-y="27"
   inkscape:window-maximized="1"
   inkscape:current-layer="svg45" /><metadata
   id="metadata51"><rdf:RDF><cc:Work
       rdf:about=""><dc:format>image/svg+xml</dc:format><dc:type
         rdf:resource="http://purl.org/dc/dcmitype/StillImage" /><dc:title></dc:title></cc:Work></rdf:RDF></metadata><defs
   id="defs49" />
     
    
    
    
    
    
    
    
    
    
    
    <g>
    
    <path
   id="_37"
   serif:id="37"
   d="M3456.31 5909.11L3426.89347656 5906.9509375L3346.8109375 5898.724375L3291.59820801 5891.51576172L3228.31292969 5881.80625L3158.4864209 5869.26783203L3083.65 5853.5725L3005.33498535 5834.39224609L2925.07269531 5811.3990625L2844.39444824 5784.26494141L2764.8315625 5752.661875L2725.94691711 5735.08198486L2687.91535645 5716.26185547L2650.92829529 5696.16048584L2615.17714844 5674.736875L2580.85333069 5651.95002197L2548.14825684 5627.75892578L2517.25334167 5602.12258545L2488.36 5575.0L2460.34885101 5548.8943866L2432.01369873 5526.24657715L2403.41573517 5506.9219928L2374.61615234 5490.78605469L2345.67614227 5477.70418396L2316.65689697 5467.54180176L2287.61960846 5460.16432922L2258.62546875 5455.4371875L2229.73566986 5453.22579773L2201.01140381 5453.39558105L2172.51386261 5455.81195862L2144.30423828 5460.34035156L2116.44372284 5466.84618103L2088.9935083 5475.19486816L2062.01478668 5485.25183411L2035.56875 5496.8825L1984.51949951 5524.32661621L1936.33529297 5556.45058594L1891.5056665 5592.17777832L1850.52015625 5630.4315625L1813.86829834 5670.13530762L1782.03962891 5710.21238281L1755.52368408 5749.58615723L1734.81 5787.18L1638.11796875 5993.99109375L1574.43720703 6123.54111328L1540.00032471 6189.03966064L1504.30375 6252.80625L1467.70096436 6313.18014404L1430.54544922 6368.50060547L1393.19068604 6417.10689697L1374.54904938 6438.3732486L1355.99015625 6457.33828125L1337.55819183 6473.79440277L1319.29734131 6487.534021L1301.25178986 6498.34954376L1283.46572266 6506.03337891L1265.98332489 6510.37793427L1248.84878174 6511.17561768L1232.10627838 6508.21883698L1215.8 6501.3L1187.16775879 6482.20540527L1175.36072693 6471.80777893L1165.11363281 6460.85714844L1148.96089355 6437.33852051L1138.0328125 6411.7328125L1131.65266113 6384.12331543L1129.14371094 6354.59332031L1129.8292334 6323.22611816L1133.0325 6290.105L1144.28535156 6218.93417969L1157.4884375 6141.7471875L1163.12949707 6101.10585449L1167.22792969 6059.21035156L1169.10700684 6016.14396973L1168.09 5971.99L1162.63551489 5926.50497314L1152.03133789 5879.62994141L1136.84451147 5831.73060303L1117.64207813 5783.17265625L1094.99108032 5734.32179932L1069.45856055 5685.54373047L1041.61156128 5637.20414795L1012.017125 5589.66875L949.854111328 5498.47330078L887.505859375 5414.88296875L829.508708984 5341.82333984L780.399 5282.22L769.821832916 5268.22678375L759.738546143 5252.25606689L741.480150391 5214.73572266L726.476886475 5170.3661499L715.581828125 5119.85453125L711.941461578 5092.51644928L709.648049072 5063.90804932L708.808224823 5034.11772919L709.528623047 5003.23388672L711.91587796 4971.34491974L716.076623779 4938.53922607L722.11749472 4904.90520355L730.145125 4870.53125L740.266148834 4835.50576324L752.587200439 4799.91714111L767.214914032 4763.85378143L784.255923828 4727.40408203L803.816864044 4690.65644073L826.004368896 4653.69925537L850.925072601 4616.62092377L878.685609375 4579.50984375L909.392613434 4542.45441315L943.152718994 4505.54302979L980.072560272 4468.86409149L1020.25877148 4432.50599609L1063.81798685 4396.55714142L1110.85684058 4361.10592529L1161.48196689 4326.24074554L1215.8 4292.05"
   style="fill:none;stroke:black;stroke-width:4px;" /> 
    
    
    
    
    
    
    <path
   id="_16"
   serif:id="16"
   d="M1100.14 4172.53L1060.66346484 4199.97589844L1016.59101807 4233.08422363L960.98309375 4278.0503125L897.35517334 4334.0747998L829.222738281 4400.35832031L794.56591571 4437.09741638L760.10127002 4476.10150879L726.268236389 4517.27067688L693.50625 4560.505L662.254746033 4605.7045575L632.953159668 4652.76942871L606.040926086 4701.59969299L581.957480469 4752.09542969L561.142257996 4804.15671814L544.034693848 4857.6836377L531.074223206 4912.5762677L522.70028125 4968.7346875L519.352303162 5026.05897644L521.469724121 5084.44921387L524.715282738 5114.01283806L529.491979309 5143.80547913L535.854743233 5173.81464699L543.858503906 5204.02785156L553.558190727 5234.43260277L565.008733093 5265.01641052L578.265060402 5295.76678474L593.382102051 5326.67123535L610.414787437 5357.71727226L629.418045959 5388.8924054L650.446807014 5420.18414467L673.556 5451.58L719.397948456 5512.54333771L760.401724365 5569.77470947L796.789411041 5623.44865326L828.783091797 5673.73970703L856.604849945 5720.82240875L880.476768799 5764.87129639L900.620931671 5806.0609079L917.259421875 5844.56578125L930.614322723 5880.56045441L940.907717529 5914.21946533L948.361689606 5945.71735199L953.198322266 5975.22865234L955.639698822 6002.92790436L955.907902588 6028.989646L954.225016876 6053.58841522L950.813125 6076.89875L945.894310272 6099.09518829L939.690656006 6120.35226807L924.317162109 6160.74650391L887.923765625 6237.94234375L870.457196045 6277.53655518L855.846267578 6319.65669922L850.166877045 6342.10034088L845.867646729 6365.69907959L843.170659943 6390.62745331L842.298 6417.06L843.488936005 6444.05240112L846.772503662 6470.4975293L852.055436188 6496.32852173L859.244466797 6521.47851563L868.246328705 6545.88064819L878.967755127 6569.46805664L891.315479279 6592.17387817L905.196234375 6613.93125L920.516753632 6634.67330933L937.183770264 6654.33319336L955.104017487 6672.84403931L974.184228516 6690.13898438L994.331136566 6706.15116577L1015.45147485 6720.8137207L1037.45197659 6734.05978638L1060.239375 6745.8225L1083.72040329 6756.03499878L1107.80179468 6764.63041992L1132.39028238 6771.54190063L1157.39259961 6776.70257812L1182.71547958 6780.0455896L1208.26565552 6781.50407227L1233.94986063 6781.01116333L1259.67482812 6778.5L1285.34729123 6773.90371948L1310.87398315 6767.15545898L1336.16163712 6758.18835571L1361.11698633 6746.93554688L1385.64676401 6733.33016968L1409.65770337 6717.30536133L1433.05653763 6698.79425903L1455.75 6677.73L1478.2349762 6653.20100525L1501.07547363 6624.58597168L1524.27890808 6592.25626282L1547.85269531 6556.58324219L1596.14099121 6476.69271973L1645.9996875 6387.8853125L1750.66558594 6195.40347656L1805.59144043 6097.67086426L1862.325 6002.905L1920.92559082 5914.07679199L1950.94456238 5872.8177179L1981.45253906 5834.15714844L2012.45693665 5798.46644714L2043.9651709 5766.11697754L2075.98465759 5737.48010315L2108.5228125 5712.9271875L2141.58705139 5692.82959412L2175.18479004 5677.55868652L2209.32344421 5667.48582825L2244.01042969 5662.98238281L2261.56186409 5662.93524101L2279.25316223 5664.41971375L2297.08525108 5667.48222145L2315.05905762 5672.16918457L2333.1755088 5678.52702354L2351.43553162 5686.60215881L2369.84005302 5696.44101082L2388.39 5708.09L2463.0501709 5757.02040039L2537.86933594 5803.15007812L2612.58109863 5846.31549805L2686.9190625 5886.353125L2760.61683105 5923.09942383L2833.40800781 5956.39085938L2905.02619629 5986.06389648L2975.205 6011.955L3043.67802246 6033.90063477L3110.17886719 6051.73726562L3174.4411377 6065.30135742L3236.1984375 6074.429375L3295.18437012 6078.9577832L3351.13253906 6078.72304688L3403.77654785 6073.56163086L3452.85 6063.31"
   style="fill:none;stroke:black;stroke-width:4px;" />
    <path
   id="_15"
   serif:id="15"
   d="M1375.21 4292.05L1362.74211182 4258.44321533L1346.02689453 4226.26009766L1325.76139404 4195.60337646L1302.64265625 4166.57578125L1277.36772705 4139.2800415L1250.63365234 4113.81888672L1223.13747803 4090.29504639L1195.57625 4068.81125L1143.04681641 4032.37470703L1098.62171875 4005.33109375L1056.39 3982.71"
   style="fill:none;stroke:black;stroke-width:4px;" />
    <path
   id="_14"
   serif:id="14"
   d="M1259.53 3370.16L1248.8034668 3384.55380615L1236.12710938 3409.14044922L1221.84329102 3442.43714111L1206.294375 3482.96109375L1172.77070313 3579.75962891L1138.295 3687.67375L1077.443125 3889.39953125L1045.65 3993.24L1039.10336133 4003.86445313L1031.42732813 4014.16125L1025.63897461 4026.65179688L1024.39551343 4034.50766602L1024.755375 4043.8575L1027.0956936 4055.01647461L1031.79360352 4068.29976562L1039.22623901 4084.02254883L1049.77073437 4102.5L1081.7038418 4148.97960938L1130.61 4210.26L1159.1777124 4241.69224854L1186.43326172 4266.85767578L1212.30339111 4286.3411792L1236.71484375 4300.72765625L1259.59436279 4310.60200439L1280.86869141 4316.54912109L1300.46457275 4319.15390381L1318.30875 4319.00125L1334.32796631 4316.67605713L1348.44896484 4312.76322266L1370.70328125 4302.51421875L1384.48564453 4292.93341797L1389.21 4288.7L1823.55 3877.69L1833.09972748 3862.67020813L1838.59371826 3846.21025879L1840.26699738 3828.44522888L1838.35458984 3809.51019531L1833.09152069 3789.54023499L1824.71281494 3768.6704248L1813.45349762 3747.03584167L1799.54859375 3724.7715625L1783.23312836 3702.01266418L1764.74212646 3678.89422363L1722.17361328 3632.11902344L1673.72325439 3585.52657715L1621.27125 3540.1975L1566.69780029 3497.21240723L1511.88310547 3457.65191406L1458.70736572 3422.59663574L1409.05078125 3393.1271875L1364.79355225 3370.32418457L1327.81587891 3355.26824219L1312.64443817 3350.98311096L1299.99796143 3349.03997559L1290.11147369 3349.57391296L1283.22 3352.72L1274.47860107 3362.75400391L1269.35365234 3374.79484375L1267.60027588 3388.72826172L1268.97359375 3404.44L1273.22872803 3421.81580078L1280.12080078 3440.74140625L1300.83625 3482.785L1329.16091797 3529.65671875L1363.13578125 3580.4425L1440.2 3690.1L1460.73495117 3717.49541748L1482.57835937 3743.03474609L1505.50493164 3766.6626001L1529.289375 3788.32359375L1553.70639648 3807.96234131L1578.53070313 3825.52345703L1603.53700195 3840.95155518L1628.5 3854.19125L1653.1944043 3865.18715576L1677.39492187 3873.88388672L1700.87625977 3880.22605713L1723.413125 3884.15828125L1744.78022461 3885.62517334L1764.75226562 3884.57134766L1783.10395508 3880.94141846L1799.61 3874.68"
   style="fill:none;stroke:black;stroke-width:4px;" />
    <path
   id="_13"
   serif:id="13"
   d="M2295.77 2876.79L2308.0590625 2907.039375L2322.14035156 2938.60734375L2340.375 2975.5875L2361.90964844 3013.81734375L2385.8909375 3049.134375L2398.53239746 3064.39980469L2411.46550781 3077.37609375L2424.58359863 3087.54292969L2437.78 3094.38L2092.42 3340.25L2114.010625 3365.32515625L2133.746875 3392.86888672L2152.9975 3427.03875L2160.92986328 3445.81677002L2166.9278125 3465.30126953L2170.38701172 3485.17556396L2170.703125 3505.12296875L2167.27181641 3524.82679932L2159.48875 3543.97037109L2146.74958984 3562.23699951L2128.45 3579.31L2107.57773437 3592.76577881L2087.56796875 3600.80982422L2068.4875 3604.06907471L2050.403125 3603.17046875L2033.38164062 3598.74094482L2017.48984375 3591.40744141L2002.79453125 3581.79689697L1989.3625 3570.53625L1966.55546875 3545.57240234L1949.603125 3521.53140625L1935.4 3496.28L1926.51421875 3522.50578125L1915.51861328 3547.70919922L1900.25375 3574.23625L1891.04360107 3586.41721924L1880.79404297 3597.03439453L1869.51437744 3605.4562085L1857.21390625 3611.05109375L1843.90193115 3613.18748291L1829.58775391 3611.23380859L1814.28067627 3604.55850342L1797.99 3592.53L1783.79332031 3577.22160156L1774.400625 3561.27359375L1769.27542969 3544.91050781L1767.88125 3528.356875L1769.68160156 3511.83722656L1774.14 3495.57609375L1780.71996094 3479.79800781L1788.885 3464.7275L1807.824375 3437.60734375L1826.66625 3416.011875L1846.89 3396.58L1824.95171875 3417.7153125L1801.09705078 3436.60644531L1771.82375 3454.355L1755.89848389 3461.23247559L1739.51060547 3465.94230469L1722.95746338 3467.85715332L1706.53640625 3466.3496875L1690.54478271 3460.79257324L1675.27994141 3450.55847656L1661.03923096 3435.02006348L1648.12 3413.55L1638.76823975 3390.18355957L1634.60951172 3369.28582031L1635.01052002 3350.72415527L1639.33796875 3334.3659375L1646.95856201 3320.07854004L1657.23900391 3307.72933594L1669.54599854 3297.18569824L1683.24625 3288.315L1712.29333984 3275.06191406L1739.31390625 3266.9090625L1767.01 3261.66L1728.8115625 3268.6834375L1690.70441406 3272.97785156L1648.495 3273.8075L1627.86046387 3271.98868652L1608.61058594 3268.18246094L1591.54877441 3262.01508301L1577.4784375 3253.1128125L1567.2029834 3241.10190918L1563.73940247 3233.81392639L1561.52582031 3225.60863281L1561.25035645 3206.25924316L1567.18 3182.68L1577.58146729 3159.53807129L1589.94033203 3141.42457031L1603.89391357 3127.8516748L1619.07953125 3118.3315625L1635.13450439 3112.37641113L1651.69615234 3109.49839844L1668.40179443 3109.20970215L1684.88875 3111.0225L1715.75587891 3119.00128906L1741.39609375 3129.5321875L1765.39 3142.64L1744.6340625 3116.75921875L1726.61863281 3089.88822266L1710.56 3058.60125L1704.91645996 3042.44343506L1701.74449219 3026.55162109L1701.7048877 3011.38247314L1705.4584375 2997.39265625L1713.66593262 2985.03883545L1726.98816406 2974.77767578L1746.08592285 2967.06584229L1771.62 2962.36L1798.74296387 2961.72610107L1822.33105469 2965.52193359L1842.63057129 2973.1419165L1859.8878125 2983.98046875L1874.34907715 2997.43200928L1886.26066406 3012.89095703L1895.86887207 3029.75173096L1903.42 3047.40875L1909.16034668 3065.25643311L1913.33621094 3082.68919922L1917.9796875 3113.88765625L1919.33 3144.66L2279.28 2890.6"
   style="fill:none;stroke:black;stroke-width:4px;" />
    
    
    
    
    </g>
    
    
    
    
    
    
    
</svg>